<?xml version="1.0" encoding="utf-8"?>
<!-- Generator: Adobe Illustrator 20.1.0, SVG Export Plug-In . SVG Version: 6.00 Build 0)  -->
<svg version="1.1" id="Layer_1" xmlns="http://www.w3.org/2000/svg" xmlns:xlink="http://www.w3.org/1999/xlink" x="0px" y="0px"
	 viewBox="0 0 28 39.9" style="enable-background:new 0 0 28 39.9;" xml:space="preserve">
<style type="text/css">
	.st0{fill:#FF33FF;stroke:#000000;stroke-miterlimit:10;stroke-opacity:0;}
	.st1{fill:none;stroke:#999999;stroke-width:2;stroke-miterlimit:10;}
	.st2{fill-opacity:0;}
	.st3{fill:#EA6624;stroke:#000000;stroke-miterlimit:10;stroke-opacity:0;}
	.st4{enable-background:new    ;}
	.st5{fill:#FFFFFF;}
</style>
<title>prodCount</title>
<path class="st0" d="M1.9,21C0.7,18.9,0,16.5,0,14C0,6.3,6.3,0,14,0s14,6.3,14,14c0,2.5-0.7,4.9-1.9,7c-3.4,6.2-12,18.9-12,18.9
	S5.3,27.2,1.9,21z"/>
<path class="st1" d="M-9.5,70.4l7.8-2 M6,66.4l7.8-2 M21.5,62.4l7.8-2 M37,58.4l7.8-2 M52.5,54.4l7.8-2 M68,50.4l7.8-2 M83.5,46.4
	l7.8-2 M99,42.4l7.8-2 M114.5,38.4l7.8-2 M130,34.4l7.8-2 M145.5,30.4l7.8-2 M161,26.4l7.8-2"/>
<rect x="-19.5" y="37.9" class="st2" width="26" height="14"/>
<rect x="-19.5" y="37.9" class="st2" width="26" height="14"/>
<rect x="-14.5" y="37.9" class="st2" width="16" height="14"/>
<path class="st3" d="M58.9,31c-1.2-2.1-1.9-4.5-1.9-7c0-7.7,6.3-14,14-14s14,6.3,14,14c0,2.5-0.7,4.9-1.9,7
	c-3.4,6.2-12,18.9-12,18.9S62.3,37.2,58.9,31z"/>
<rect x="57.5" y="17.9" class="st2" width="26" height="14"/>
<rect x="57.5" y="17.9" class="st2" width="26" height="14"/>
<rect x="62.5" y="17.9" class="st2" width="16" height="14"/>
<text transform="matrix(1 0 0 1 62.5 28.92)" class="st5" style="font-family:'Arial-BoldMT'; font-size:12px;">4</text>
<text transform="matrix(1 0 0 1 68.5 28.92)" class="st5" style="font-family:'Arial-BoldMT'; font-size:12px;">.</text>
<text transform="matrix(1 0 0 1 72.5 28.92)" class="st5" style="font-family:'Arial-BoldMT'; font-size:12px;">0</text>
<path class="st3" d="M136.9,11c-1.2-2.1-1.9-4.5-1.9-7c0-7.7,6.3-14,14-14s14,6.3,14,14c0,2.5-0.7,4.9-1.9,7
	c-3.4,6.2-12,18.9-12,18.9S140.3,17.2,136.9,11z"/>
<rect x="132.5" y="-2.1" class="st2" width="32" height="14"/>
<rect x="132.5" y="-2.1" class="st2" width="32" height="14"/>
<rect x="137.5" y="-2.1" class="st2" width="21" height="14"/>
<text transform="matrix(1 0 0 1 137.5 8.92)" class="st5" style="font-family:'Arial-BoldMT'; font-size:12px;">4</text>
<text transform="matrix(1 0 0 1 144.5 8.92)" class="st5" style="font-family:'Arial-BoldMT'; font-size:12px;">.</text>
<text transform="matrix(1 0 0 1 147.5 8.92)" class="st5" style="font-family:'Arial-BoldMT'; font-size:12px;">3</text>
<text transform="matrix(1 0 0 1 154.5 8.92)" class="st5" style="font-family:'Arial-BoldMT'; font-size:12px;">*</text>
</svg>
