<svg id="Layer_1" data-name="Layer 1" xmlns="http://www.w3.org/2000/svg" viewBox="0 0 375.6 351.4"><defs><style>.cls-1,.cls-3{fill:#fff;}.cls-2,.cls-6{fill:#f03;}.cls-2,.cls-3{stroke:#000;stroke-opacity:0;}.cls-2,.cls-3,.cls-5,.cls-6{stroke-miterlimit:10;}.cls-4,.cls-5{isolation:isolate;font-size:17.41px;font-family:ArialMT, Arial;}.cls-4{fill:#e21d38;}.cls-5{fill:none;stroke:#f03;}.cls-6{fill-opacity:0;stroke:#e21d38;}</style></defs><title>f5</title><rect class="cls-1" width="375.6" height="351.5"/><path class="cls-2" d="M351.4,175.7C351.4,78.7,272.6,0,175.6.1A175.75,175.75,0,0,0,0,175.9C0,273,78.8,351.6,175.8,351.5A175.58,175.58,0,0,0,351.4,175.9v-.2Z"/><path class="cls-3" d="M171.7,193c86.3,7.1,119.5,30.9,117.9,63.3-1.6,17.4-18.2,34-39.6,35.6-25.3,1.6-37.2-8.7-44.3-19.8-6.3-10.3-13.4-20.6-20.6-31.7-1.6-3.2-4.8-.8-7.1.8-5.5,4.8-10.3,10.3-15,15-3.2,3.2-2.4,5.5-1.6,7.9,4.8,11.1,9.5,22.2,14.2,32.5,7.9,4.8,43.5,11.1,69.6,8.7,18.2-1.6,40.4-8.7,59.4-22.2,18.2-14.2,31.7-33.2,34-64.1.8-19-2.4-38.8-19-57s-45.1-33.1-102.9-37.1c3.2-9.5,5.5-18.2,8.7-26.9,34.8,1.6,65.7,4,91.8,7.1,2.4-10.3,3.2-19.8,5.5-29.3l-7.1-8.7c-13.5-1.6-26.1-4.8-40.4-6.3-18.2-2.4-37.2-4-57.8-4.8-13.3,38.1-29.1,86.4-45.7,137m-23-147.9c-6.3,0-15,1.6-29.3,4.8C88.5,58.6,50.5,80,46.6,115.6c-.8,5.5-.8,11.9-1.6,17.4-8.7.8-16.6,1.6-24.5,2.4-.8,7.1-.8,13.4-1.6,20.6,7.9-.8,15.8-.8,24.5-1.6-1.6,37.2,0,74.4,3.2,109.2a87.37,87.37,0,0,1,.8,13.5c-.8,3.2-6.3,4.8-14.2,4.8l10.3,12.7c30.1,5.5,68.1,9.5,108.4,10.3V293c-23.7-1.6-34.8-4.8-36.4-9.5-1.6-4-1.6-9.5-2.4-15-1.6-36.4-2.4-76-1.6-116.3,13.4,0,26.9,0,40.4-.8,7.1-3.2,13.4-6.3,19.8-9.5V128.4c-20.6,0-40.4.8-60.2.8.8-16.6,1.6-32.5,2.4-47.5.8-10.3,7.9-17.4,14.3-17.4,11.1-.8,21.4,4,31.7,8.7,5.5,2.4,11.1,5.5,16.6,7.9,2.4.8,5.5,1.6,7.9-.8A126.27,126.27,0,0,1,193.9,69c1.6-2.4.8-4,0-4.8-7.1-5.5-13.4-10.3-20.6-15.8-4-3.2-11.1-3.2-17.4-3.2-2.4-1-4.8-.2-7.2-.1"/><text class="cls-4" transform="translate(357.7 290.83)">R</text><text class="cls-5" transform="translate(357.7 290.83)">R</text><path class="cls-6" d="M375.6,284.7a12.1,12.1,0,1,0-12.1,12.1,12.08,12.08,0,0,0,12.1-12.1Z"/></svg>