<svg xmlns="http://www.w3.org/2000/svg" viewBox="0 0 480.01 551"><defs><style>.cls-1{fill:#211e1e;}.cls-1,.cls-2{stroke:#000;stroke-miterlimit:10;stroke-opacity:0;}.cls-2{fill:#0067c5;}</style></defs><title>Asset 1</title><g id="Layer_2" data-name="Layer 2"><g id="Layer_1-2" data-name="Layer 1"><path class="cls-1" d="M.5,441.48H18.43l41.43,55v-55H79.09v88.85H62.58L19.73,474.25v56.08H.5V441.48"/><path class="cls-1" d="M136.16,491.26c-1.11-8.53-6.18-14.34-14.22-14.34s-13.17,5.69-14.72,14.34ZM88.43,497v-.25c0-19.29,13.79-35.12,33.51-35.12,22.57,0,33,17.5,33,36.6,0,1.55-.13,3.28-.25,5.07H107.53c1.92,8.66,7.91,13.23,16.51,13.23,6.49,0,11.13-2,16.45-6.92l10.94,9.71c-6.25,7.79-15.4,12.55-27.64,12.55-20.34,0-35.37-14.22-35.37-34.87"/><path class="cls-1" d="M166.89,511.17v-32h-8.1V462.81h8.1V445.56h19.17v17.25h16V479.2h-16V508c0,4.45,1.92,6.55,6.18,6.55a19.92,19.92,0,0,0,9.52-2.35v15.33a28.52,28.52,0,0,1-15.21,3.9c-11.69,0-19.66-4.64-19.66-20.28"/><path class="cls-1" d="M354.8,496.71v-.25c0-11.19-7.61-18.67-16.57-18.67s-16.39,7.48-16.39,18.67v.25c0,11.19,7.42,18.67,16.39,18.67S354.8,508,354.8,496.71Zm-51.94-33.88h19.23v9.71c4.64-6.31,11.07-10.94,21.08-10.94,15.77,0,30.79,12.3,30.79,34.87v.25c0,22.57-14.78,34.87-30.79,34.87-10.26,0-16.57-4.64-21.08-10V550.5H302.86V462.82"/><path class="cls-1" d="M433.76,496.71v-.25c0-11.19-7.61-18.67-16.57-18.67s-16.45,7.48-16.45,18.67v.25c0,11.19,7.48,18.67,16.45,18.67S433.76,508,433.76,496.71Zm-51.94-33.88H401v9.71c4.64-6.31,11.07-10.94,21.08-10.94,15.77,0,30.79,12.3,30.79,34.87v.25c0,22.57-14.78,34.87-30.79,34.87-10.26,0-16.57-4.64-21.08-10V550.5H381.82V462.82"/><path class="cls-1" d="M263.84,493.43,252.1,464.8l-11.75,28.63Zm-20.22-51.94h17.5L298,530.34H277.82l-8.16-19.79H234.6l-8.1,19.79H206.65l37-88.85"/><path class="cls-2" d="M.5.5V374.89H175.67V150.26H275.78V374.89H450.95V.5H.5"/><path class="cls-1" d="M479.51,477.9h-2.29V465.29h-.06l-4.45,12.61h-1.42l-4.45-12.61h-.06V477.9h-2.29V462.81H468l4,11.44,4-11.44h3.46Zm-17.75-13.11H457.5V477.9h-2.29V464.79h-4.27v-2h10.82v2"/></g></g></svg>