<svg id="Layer_1" data-name="Layer 1" xmlns="http://www.w3.org/2000/svg" viewBox="0 0 1196.75 150"><defs><style>.cls-1{fill:#ea1b22;}</style></defs><title>new</title><path class="cls-1" d="M498.13,97.59h76.24L534.06,32.73,460.07,150H426.39l90-140.87A21.27,21.27,0,0,1,534.06,0a20.87,20.87,0,0,1,17.31,8.89L641.73,150H608l-15.89-26.21H515Zm349.8,26.21V1.42H819.36V135.77a14,14,0,0,0,4.15,10A14.6,14.6,0,0,0,833.94,150H964.26l16.84-26.21ZM375.17,101.86A50.22,50.22,0,0,0,376.59,1.43H250.17V150h28.57V27.63h94.55a24.07,24.07,0,0,1,0,48.14l-80.56-.12L378,150h41.5l-57.39-48.14ZM74.3,150a74.29,74.29,0,1,1,0-148.58h86.42a74.29,74.29,0,1,1,0,148.58H74.3Zm84.44-26.21a48.08,48.08,0,1,0,0-96.17H76.21a48.08,48.08,0,0,0,0,96.17ZM701.37,150a74.29,74.29,0,1,1,0-148.58H804L787.22,27.63h-84a48.08,48.08,0,1,0,0,96.17h103L789.47,150Zm349.45-26.21a48,48,0,0,1-46.25-35H1126.7l16.84-26.21h-139a48.16,48.16,0,0,1,46.25-35h83.83l17-26.21h-102.7a74.29,74.29,0,0,0,0,148.58H1137l16.84-26.21h-103"/><path class="cls-1" d="M1166.91,17.19a13.1,13.1,0,1,1,13,13.16h0a13,13,0,0,1-13-13Zm13,16.84a16.72,16.72,0,1,0-16.6-16.84v.12A16.7,16.7,0,0,0,1180,34Zm-1.54-26.68c2.61,0,3.68.12,4.86.59a5.23,5.23,0,0,1,3.68,5.22,4.75,4.75,0,0,1-.24,1.54,4.81,4.81,0,0,1-2.25,3.2c-.24.12-.35.24-.83.47l4.27,7.71h-4.15L1180,19h-2.61v7.11h-3.68V7.35Zm1.31,8.54c1.19-.12,2.37-.12,3.08-1.19a2.51,2.51,0,0,0,.47-1.66,2.66,2.66,0,0,0-1.42-2.25,8.58,8.58,0,0,0-3.44-.36h-1.07v5.45h2.37"/></svg>