<svg id="Layer_1" data-name="Layer 1" xmlns="http://www.w3.org/2000/svg" viewBox="0 0 1091.29 309.6"><defs><style>.cls-1,.cls-2{fill:#fff;}.cls-2,.cls-3,.cls-4{stroke:#000;stroke-miterlimit:10;stroke-opacity:0;}.cls-4{fill:#e93442;}</style></defs><title>redhat</title><rect class="cls-1" width="1090.79" height="350.46"/><path class="cls-2" d="M322.11,270.12A95.44,95.44,0,0,0,301,267.6c-12.39,0-23.66,2.16-32,5.61a2.82,2.82,0,0,0-1.57,2.5,2.58,2.58,0,0,0,.25,1.14c1,2.85-.64,5.92-8.68,7.71-11.93,2.61-19.46,14.93-23.76,19-5.06,4.8-19.34,7.76-17.19,4.87,1.68-2.22,8.11-9.2,12-16.74,3.51-6.74,6.63-8.66,10.91-15.1,1.27-1.89,6.14-8.51,7.57-13.76,1.59-5.12,1.06-11.55,1.67-14.19.88-3.82,4.47-12.08,4.74-16.78.15-2.62-11,3.79-16.35,3.79s-10.49-3.19-15.24-3.4c-5.87-.28-9.65,4.52-15,3.66-3-.47-5.6-3.14-10.89-3.33-7.55-.28-16.79,4.19-34.12,3.64-17.05-.56-32.8-21.56-34.95-24.89-2.53-3.9-5.61-3.9-9-.82s-7.51.64-8.67-1.41c-2.24-3.91-8.22-15.33-17.48-17.74C80.52,188,74,198.45,74.87,206.72s6.3,10.77,8.82,15.24,3.79,7.35,8.51,9.33c3.37,1.4,4.61,3.46,3.62,6.21-.88,2.4-4.36,3-6.68,3.06a17.76,17.76,0,0,1-10.79-2.68c-2.89-1.86-5.27-4.42-7.78-8.78-2.94-4.81-7.55-6.9-12.93-6.9a15.64,15.64,0,0,0-7.08,1.8,63.23,63.23,0,0,1-29.24,7H9.13a175.22,175.22,0,0,0,313,39.17"/><path class="cls-3" d="M322.11,270.15A94.06,94.06,0,0,0,301,267.61c-12.39,0-23.66,2.16-32,5.61a2.81,2.81,0,0,0-1.57,2.5,2.53,2.53,0,0,0,.25,1.13c1,2.86-.64,5.94-8.68,7.72-11.93,2.62-19.46,14.92-23.76,19-5.06,4.81-19.34,7.77-17.19,4.9,1.68-2.24,8.11-9.23,12-16.77,3.51-6.7,6.63-8.7,10.95-15.1,1.27-1.89,6.14-8.53,7.57-13.76,1.59-5.13,1.06-11.55,1.67-14.19.88-3.82,4.47-12.08,4.74-16.77.15-2.64-11,3.77-16.35,3.77s-10.49-3.18-15.24-3.39c-5.87-.3-9.65,4.52-15,3.66-3-.47-5.6-3.14-10.89-3.34-7.55-.27-16.79,4.2-34.12,3.64-17.05-.56-32.8-21.53-34.95-24.87-2.53-3.93-5.61-3.93-9-.84s-7.51.65-8.67-1.4c-2.24-3.93-8.22-15.34-17.48-17.75C80.52,188,74,198.45,74.87,206.73s6.3,10.76,8.82,15.23,3.79,7.36,8.51,9.34c3.37,1.39,4.61,3.46,3.62,6.21-.88,2.4-4.36,3-6.68,3.06a17.67,17.67,0,0,1-10.79-2.7c-2.89-1.83-5.27-4.4-7.78-8.76-2.94-4.8-7.55-6.9-12.93-6.9A15.79,15.79,0,0,0,50.56,224a63.23,63.23,0,0,1-29.24,7H9.13A174.59,174.59,0,0,1,0,175C0,78.35,78.4,0,175.11,0s175.1,78.35,175.1,175a174.21,174.21,0,0,1-28.1,95.13"/><path class="cls-3" d="M213.67,254.1c.9.87,2.45,3.82.56,7.58a15,15,0,0,1-4.26,5c-2.48,2-7.28,4.26-13.87.06-3.56-2.24-3.78-3-8.68-2.36-3.5.45-4.89-3.1-3.64-6s6.43-5.3,12.87-1.53c2.91,1.7,7.41,5.3,11.35,2.1a29.3,29.3,0,0,0,4.9-4.8.57.57,0,0,1,.42-.17.56.56,0,0,1,.37.13"/><path class="cls-4" d="M161.48,83.34C141.26,84.8,139.15,87,135.36,91,130,96.71,123,83.64,123,83.64c-4.23-.89-9.34-7.7-6.58-14s7.76-4.41,9.32-2.45c1.91,2.38,6,6.28,11.31,6.14S148.47,72,157,72s14.47,3.23,14.79,6c.3,2.36-.7,4.59-10.33,5.3m21.25-33.41h-.09a.54.54,0,0,1-.56-.52h0a.53.53,0,0,1,.32-.49,47,47,0,0,1,16.46-4.39,55.62,55.62,0,0,1,5.86-.33h1c11.23.26,20.21,4.72,20.08,10s-9.33,9.29-20.57,9a39.79,39.79,0,0,1-10-1.47.75.75,0,0,1-.6-.74.76.76,0,0,1,.62-.74c7-1.61,11.72-4.27,11.38-6.77-.45-3.31-9.59-5.11-20.46-4-1.2.12-2.35.27-3.47.45m91.19,78.51c-1.73,5.81-4.19,13.25-15.14,18.87-1.6.82-2.19-.52-1.47-1.78A85.33,85.33,0,0,0,263.39,134c1.67-4.07,2.57-9.84-.78-21.87C256,88.43,242.27,56.75,232.29,46.5c-9.64-9.91-27.1-12.71-42.89-8.66-5.81,1.48-17.18,7.39-38.27,2.64-36.49-8.22-41.9,10-44,18S100,89.06,100,89.06c-1.67,9.23-3.87,25.23,52.81,36,26.4,5,27.72,11.85,28.91,16.74,2.1,8.79,5.44,13.82,9.21,16.33s0,4.6-4.19,5c-11.23,1.17-52.79-10.74-77.39-24.7-20.11-12.29-20.44-23.34-15.84-32.73-30.36-3.23-53.17,2.9-57.29,17.3-7.1,24.67,54.26,66.81,124.15,88,73.33,22.19,148.75,6.69,157.14-39.38,3.81-20.93-13.83-36.42-43.58-43.12"/><path class="cls-3" d="M348.44,260.79H350l2.38,3.91h1.54l-2.59-4a2.34,2.34,0,0,0,2.35-2.33q0-.08,0-.15c0-1.79-1.06-2.57-3.18-2.57h-3.45v9h1.36Zm0-1.16v-2.81h1.86c.94,0,2,.23,2,1.33,0,1.4-1,1.48-2.18,1.48Z"/><path class="cls-3" d="M358.91,260.2a8.85,8.85,0,1,1-8.85-8.86,8.85,8.85,0,0,1,8.85,8.86v0m-8.85-7.28a7.27,7.27,0,1,0,7.27,7.29,7.27,7.27,0,0,0-7.27-7.29"/><path class="cls-3" d="M439.48,186c0-16.06-.34-27.86-1-38.53h26.25l1.14,22.78h.85c5.91-16.89,19.9-25.5,32.84-25.5a28.41,28.41,0,0,1,7.13.66V174a43.82,43.82,0,0,0-9.15-.87c-14.44,0-24.48,9.19-27.19,22.93a51.33,51.33,0,0,0-.78,9.14v62.17H439.23Z"/><path class="cls-3" d="M543.32,215.62c.79,21.72,17.62,31.23,37,31.23,14,0,23.94-2.19,33.1-5.55L618,262.17c-10.26,4.35-24.5,7.59-41.91,7.59-39,0-61.78-24-61.78-60.77,0-33.1,20.08-64.39,58.66-64.39,39,0,51.7,32.05,51.7,58.3a69.08,69.08,0,0,1-1.07,13Zm52.75-21.12c.14-11.11-4.7-29.22-25-29.22-18.68,0-26.44,16.95-27.81,29.22Z"/><path class="cls-3" d="M725,215.43a36.05,36.05,0,0,1-.92,8.85c-3,13.13-13.79,21.57-26.2,21.57-19.09,0-30-16.09-30-38.11,0-22.25,10.83-39.48,30.36-39.48,13.65,0,23.42,9.63,26.09,21.3a40.78,40.78,0,0,1,.7,7.91Zm30.31-114.09L725,92.79v67.64h-.5c-5.37-8.86-17.21-15.62-33.63-15.62-28.85,0-54,23.86-53.78,64,0,36.86,22.69,61.27,51.33,61.27,17.3,0,31.79-8.24,39-21.68H728l1.36,19h27c-.56-8.16-1-21.35-1-33.62Z"/><path class="cls-3" d="M835.54,144.67a45.68,45.68,0,0,0-24.2,6.88,44,44,0,0,0-16.4,17.3h-.49v-56.1l-11.87-3.51V267.42h11.87V194c0-4.87.37-8.25,1.62-11.82,5.12-14.94,19.2-27.18,36.22-27.18,24.57,0,33.08,19.7,33.08,41.3v71.08h11.87V195c0-44.69-30.33-50.37-41.71-50.37"/><path class="cls-3" d="M983.8,238.91a195.44,195.44,0,0,0,1.76,28.5H974.63l-1.76-17.18h-.56c-5.82,9.25-19.2,19.92-38.28,19.92-24.16,0-35.41-17-35.41-33,0-27.69,24.48-44.39,73.32-43.86v-3.2c0-11.88-2.31-35.55-30.73-35.37-10.51,0-21.45,2.81-30.14,8.94L907.3,155c11-7.44,24.37-10.38,35.23-10.38,34.64,0,41.27,26,41.27,47.43Zm-11.86-35.63c-26.16-.75-60.68,3.21-60.68,32,0,17.24,11.38,25,23.89,25,20,0,31.39-12.38,35.54-24.06a23.5,23.5,0,0,0,1.25-7.2Z"/><path class="cls-3" d="M1031.09,121v26.43h34.24V157h-34.24v78c0,15.26,4.73,24.82,17.65,24.82a41.49,41.49,0,0,0,13.64-1.89l1.43,9.19a42.68,42.68,0,0,1-16.57,2.88c-8.76,0-16-2.75-20.73-8.49-5.43-6.31-7.29-16.38-7.29-28.63V157H999v-9.63h20.25v-22Z"/><path class="cls-3" d="M1080.32,261h1.58l2.38,3.91h1.54l-2.59-4a2.34,2.34,0,0,0,2.35-2.33q0-.08,0-.15c0-1.79-1.06-2.57-3.18-2.57H1079v9h1.36Zm0-1.16V257h1.86c.94,0,2,.23,2,1.33,0,1.4-1,1.48-2.18,1.48Z"/><path class="cls-3" d="M1090.79,260.44a8.85,8.85,0,1,1-8.85-8.86,8.85,8.85,0,0,1,8.85,8.86v0m-8.85-7.28a7.27,7.27,0,1,0,7.27,7.29,7.27,7.27,0,0,0-7.27-7.29h0"/></svg>