<svg id="Layer_1" data-name="Layer 1" xmlns="http://www.w3.org/2000/svg" viewBox="0 0 189.5 81.88"><defs><style>.cls-1,.cls-5{fill:#fff;}.cls-2{fill:none;stroke:#999;stroke-width:2px;}.cls-2,.cls-3{stroke-miterlimit:10;}.cls-3{fill:#ea6624;stroke:#000;stroke-opacity:0;}.cls-4{fill-opacity:0;}.cls-5{isolation:isolate;font-size:12px;font-family:Arial-BoldMT, Arial;font-weight:700;}</style></defs><title>timetable-01</title><rect class="cls-1" x="0.71" y="0.5" width="188.54" height="80.41"/><path class="cls-2" d="M10,80.5l7.75-2m7.75-2,7.75-2m7.75-2,7.75-2m7.75-2,7.75-2m7.75-2,7.75-2m7.75-2,7.75-2m7.75-2,7.75-2m7.75-2,7.75-2m7.75-2,7.75-2m7.75-2,7.75-2m7.75-2,7.75-2m7.75-2,7.75-2" transform="translate(1 0.41)"/><path class="cls-3" d="M1.37,61.1a14.47,14.47,0,0,1-1.87-7,14,14,0,0,1,28,0,14.49,14.49,0,0,1-1.87,7c-3.43,6.22-12,18.9-12,18.9S4.8,67.32,1.37,61.1Z" transform="translate(1 0.41)"/><rect class="cls-4" x="1" y="48.43" width="26" height="14"/><rect class="cls-4" x="1" y="48.43" width="26" height="14"/><rect class="cls-4" x="6" y="48.43" width="16" height="14"/><text class="cls-5" transform="translate(6 59.43)">3</text><text class="cls-5" transform="translate(12 59.43)">.</text><text class="cls-5" transform="translate(16 59.43)">0</text><path class="cls-3" d="M78.37,41.09a14.47,14.47,0,0,1-1.87-7,14,14,0,0,1,28,0,14.49,14.49,0,0,1-1.87,7C99.2,47.32,90.62,60,90.62,60S81.8,47.32,78.37,41.09Z" transform="translate(1 0.41)"/><rect class="cls-4" x="78" y="28.43" width="26" height="14"/><rect class="cls-4" x="78" y="28.43" width="26" height="14"/><rect class="cls-4" x="83" y="28.43" width="16" height="14"/><text class="cls-5" transform="translate(83 39.43)">4</text><text class="cls-5" transform="translate(89 39.43)">.</text><text class="cls-5" transform="translate(93 39.43)">0</text><path class="cls-3" d="M156.37,21.09a14.47,14.47,0,0,1-1.87-7,14,14,0,0,1,28,0,14.49,14.49,0,0,1-1.87,7c-3.44,6.23-12,18.91-12,18.91S159.8,27.32,156.37,21.09Z" transform="translate(1 0.41)"/><rect class="cls-4" x="153" y="8.43" width="32" height="14"/><rect class="cls-4" x="153" y="8.43" width="32" height="14"/><rect class="cls-4" x="158" y="8.43" width="21" height="14"/><text class="cls-5" transform="translate(158 19.43)">4</text><text class="cls-5" transform="translate(165 19.43)">.</text><text class="cls-5" transform="translate(168 19.43)">3</text><text class="cls-5" transform="translate(175 19.43)">*</text></svg>